# xmcd
#
# Track frame offsets:
#	150
#	12003
#	23862
#	37778
#	49528
#	66604
#	78668
#	91570
#	101549
#	111589
#	121965
#	132535
#	144911
#	155384
#	163460
#	176471
#
# Disc length: 2645 seconds
#
# Revision: 1
# Processed by: cddbd v1.5.2PL0 Copyright (c) Steve Scherf et al.
# Submitted via: audiograbber 1.83.01
#
DISCID=cf0a5310
DTITLE=KARAOKE BAY - KB22902
DYEAR=1900
DGENRE=KARAOKE
TTITLE0=Jailhouse Rock
TTITLE1=Hound Dog
TTITLE2=Early Mornin' Rain
TTITLE3=Memories
TTITLE4=My Way
TTITLE5=Viva Las Vegas
TTITLE6=Don't Cry Daddy
TTITLE7=That's All Right
TTITLE8=Blue Moon Of Kentucky
TTITLE9=All Shook Up
TTITLE10=Wear My Ring Around Your Neck
TTITLE11=I've Got  A Woman
TTITLE12=It's Over
TTITLE13=Follow That Dream
TTITLE14=Puppet On A String
TTITLE15=An American Trilogy
EXTD=
EXTT0=
EXTT1=
EXTT2=
EXTT3=
EXTT4=
EXTT5=
EXTT6=
EXTT7=
EXTT8=
EXTT9=
EXTT10=
EXTT11=
EXTT12=
EXTT13=
EXTT14=
EXTT15=
PLAYORDER=
